<?xml version="1.0" standalone="no"?>
<!DOCTYPE svg PUBLIC "-//W3C//DTD SVG 20010904//EN"
 "http://www.w3.org/TR/2001/REC-SVG-20010904/DTD/svg10.dtd">
<svg version="1.0" xmlns="http://www.w3.org/2000/svg"
 width="800.000000pt" height="800.000000pt" viewBox="0 0 800.000000 800.000000"
 preserveAspectRatio="xMidYMid meet">
<g transform="translate(0.000000,800.000000) scale(0.100000,-0.100000)"
fill="#000000" stroke="none">
<path d="M3774 7571 c2 -3 -15 -5 -37 -5 -23 1 -47 -3 -54 -8 -7 -6 -14 -5
-18 2 -3 6 -12 7 -18 3 -14 -9 -12 -8 -97 -17 -67 -7 -116 -13 -160 -22 -14
-3 -43 -8 -65 -11 -22 -3 -44 -8 -50 -12 -5 -4 -20 -6 -32 -5 -13 0 -23 -3
-23 -8 0 -5 -4 -7 -8 -4 -4 2 -38 -4 -74 -14 -37 -10 -69 -16 -72 -12 -3 3 -6
1 -6 -5 0 -5 -6 -10 -12 -11 -24 -1 -65 -12 -107 -26 -22 -9 -41 -13 -41 -9 0
3 -6 0 -14 -6 -13 -11 -46 -22 -73 -23 -7 -1 -13 -6 -13 -11 0 -5 -7 -7 -15
-3 -8 3 -15 1 -15 -4 0 -6 -6 -10 -14 -10 -11 0 -84 -28 -186 -72 -14 -6 -27
-12 -30 -13 -43 -15 -110 -50 -110 -57 0 -5 -4 -7 -8 -4 -5 3 -52 -19 -106
-49 -53 -30 -101 -55 -106 -55 -6 0 -10 -4 -10 -10 0 -5 -6 -10 -14 -10 -7 0
-19 -7 -26 -15 -7 -8 -16 -12 -21 -9 -5 3 -9 1 -9 -3 0 -5 -17 -17 -37 -28
-21 -11 -47 -28 -57 -37 -11 -10 -28 -20 -38 -24 -10 -3 -18 -10 -18 -15 0 -5
-7 -9 -15 -9 -8 0 -15 -4 -15 -10 0 -5 -5 -10 -10 -10 -6 0 -16 -5 -23 -10
-49 -41 -234 -183 -244 -187 -7 -3 -13 -10 -13 -17 0 -6 -11 -18 -24 -26 -47
-29 -313 -297 -378 -381 -13 -17 -33 -41 -45 -54 -60 -68 -273 -375 -273 -395
0 -6 -4 -10 -10 -10 -5 0 -10 -7 -10 -15 0 -8 -5 -15 -12 -15 -6 0 -8 -3 -5
-7 4 -3 2 -12 -5 -20 -35 -42 -209 -398 -224 -458 -3 -14 -10 -28 -15 -31 -5
-3 -9 -12 -9 -21 0 -8 -6 -29 -14 -46 -20 -44 -61 -170 -58 -179 1 -5 -3 -8
-10 -8 -6 0 -9 -3 -6 -6 3 -3 -3 -38 -14 -77 -11 -39 -22 -78 -23 -87 -2 -8
-4 -15 -5 -15 -1 0 -3 -7 -5 -15 -2 -8 -6 -26 -9 -40 -3 -14 -8 -36 -11 -50
-3 -14 -7 -37 -10 -52 -3 -16 -8 -43 -11 -60 -4 -18 -8 -44 -10 -58 -1 -14 -3
-25 -4 -25 -3 0 -10 -41 -14 -90 -3 -27 -8 -67 -11 -87 -3 -21 -8 -67 -9 -102
-2 -35 -6 -68 -9 -73 -9 -16 -4 -428 6 -440 6 -9 6 -13 -2 -13 -7 0 -9 -5 -5
-11 3 -6 8 -32 10 -58 6 -65 13 -131 19 -166 4 -29 8 -58 20 -142 3 -20 11
-43 17 -50 6 -8 6 -13 1 -13 -6 0 -5 -21 4 -52 7 -29 15 -62 18 -73 13 -61 30
-128 50 -195 9 -30 17 -59 19 -65 5 -21 38 -121 46 -140 4 -11 23 -58 41 -105
53 -139 142 -328 206 -441 12 -20 27 -47 35 -60 7 -13 15 -26 18 -29 10 -10
41 -65 47 -82 3 -10 9 -18 14 -18 5 0 9 -7 9 -15 0 -8 5 -15 10 -15 6 0 10 -4
10 -9 0 -11 100 -154 135 -194 14 -15 25 -30 25 -33 0 -18 259 -306 272 -302
5 2 44 80 87 173 43 94 86 188 97 210 10 22 19 42 20 45 10 35 18 50 27 50 6
0 8 3 5 6 -3 3 9 37 28 75 19 38 34 72 34 74 0 3 27 61 60 131 33 69 60 132
60 139 0 7 6 18 14 24 8 7 17 23 20 37 4 14 26 64 49 112 23 48 42 89 42 92 1
6 4 13 141 305 15 33 29 62 29 65 1 3 13 30 27 60 55 117 78 171 78 180 0 6 5
10 10 10 6 0 10 7 10 15 0 8 4 23 10 33 12 21 120 252 120 257 0 2 17 41 39
87 93 201 111 242 111 254 0 7 3 14 8 16 7 3 19 27 62 123 13 28 34 75 48 105
14 30 26 57 27 60 1 3 20 45 43 93 23 49 42 90 42 92 0 2 22 50 48 107 27 57
62 132 77 168 16 36 32 67 35 70 3 3 6 10 7 16 1 5 27 63 57 128 31 65 56 120
56 122 0 2 15 35 34 74 19 38 32 70 30 70 -3 0 5 15 18 33 13 17 22 34 21 37
-1 6 14 44 49 120 52 110 62 135 60 143 -1 4 2 7 8 7 5 0 10 4 10 9 0 4 14 39
32 77 36 78 33 71 43 102 4 12 12 22 18 22 6 0 8 3 5 6 -4 3 9 37 28 74 19 38
34 71 34 74 0 4 34 80 105 231 87 186 125 273 125 284 0 6 5 11 10 11 6 0 10
6 10 14 0 8 18 51 40 95 22 44 40 82 40 85 0 2 21 49 46 103 25 54 52 112 59
128 7 17 25 56 39 87 14 31 26 62 26 67 0 6 5 11 10 11 6 0 10 6 10 13 0 7 6
22 14 32 13 18 16 16 42 -40 15 -33 29 -62 29 -65 2 -6 26 -60 78 -170 19 -41
47 -102 62 -135 45 -99 126 -276 156 -342 46 -100 89 -194 116 -253 14 -30 38
-84 55 -118 53 -115 71 -157 70 -164 -1 -5 2 -8 8 -8 5 0 10 -5 10 -11 0 -5
11 -35 25 -65 14 -30 25 -59 25 -64 0 -6 5 -10 10 -10 6 0 10 -5 10 -12 0 -10
41 -103 171 -385 16 -35 42 -91 58 -125 16 -35 52 -115 81 -178 29 -63 68
-149 87 -190 42 -90 56 -123 57 -132 1 -4 7 -13 14 -20 6 -6 12 -16 12 -21 0
-5 12 -32 26 -61 14 -28 25 -52 25 -53 -1 -2 15 -38 35 -80 49 -105 58 -127
56 -135 -1 -5 3 -8 8 -8 6 0 10 -5 10 -10 0 -6 20 -54 45 -107 25 -52 45 -97
45 -98 0 -2 24 -54 53 -116 30 -63 60 -131 68 -151 7 -21 17 -38 21 -38 4 0 7
-3 6 -7 -1 -8 9 -32 72 -168 45 -97 79 -174 81 -183 0 -4 12 -27 26 -52 14
-25 25 -46 24 -47 0 -2 12 -31 28 -65 16 -35 52 -115 81 -178 28 -63 69 -151
90 -195 45 -97 54 -118 52 -127 -1 -5 3 -8 8 -8 6 0 10 -4 10 -10 0 -5 23 -58
50 -116 28 -58 50 -108 50 -110 0 -3 50 -111 115 -249 21 -44 39 -84 40 -90 2
-5 22 -50 46 -100 24 -49 44 -92 45 -95 1 -7 23 -54 137 -303 20 -42 40 -77
45 -77 9 0 122 121 178 190 16 19 31 37 34 40 3 3 17 21 32 42 15 20 33 42 41
50 12 12 58 77 139 193 51 75 138 221 138 234 0 6 5 11 10 11 6 0 10 6 10 14
0 8 7 21 15 30 9 8 15 17 15 18 -3 7 85 183 92 186 4 2 8 10 8 18 0 8 9 33 20
57 18 40 89 221 94 242 2 6 6 18 9 28 4 9 10 25 14 35 3 9 7 22 8 27 0 6 4 17
8 25 7 17 45 152 54 190 10 50 11 55 13 55 2 0 5 15 13 60 3 17 8 40 11 51 2
12 7 37 10 55 3 19 8 45 10 58 3 12 8 44 11 70 3 25 8 60 10 76 3 17 8 53 12
80 8 74 8 671 0 740 -14 106 -25 184 -38 255 -6 30 -12 64 -14 75 -2 11 -7 41
-13 67 -5 26 -7 50 -4 53 3 3 0 5 -6 5 -7 0 -12 11 -12 24 0 14 -4 36 -10 51
-5 14 -12 36 -14 50 -3 13 -17 64 -32 112 -16 48 -27 91 -26 96 1 4 -3 7 -8 7
-5 0 -9 3 -8 8 2 12 -14 66 -32 102 -10 19 -17 37 -17 40 3 17 -130 304 -190
410 -11 19 -35 62 -54 95 -18 33 -37 62 -41 63 -4 2 -8 8 -8 13 0 12 -101 163
-112 167 -4 2 -8 8 -8 14 0 9 -133 183 -208 271 -27 32 -339 343 -377 376 -42
37 -172 139 -217 171 -27 18 -48 38 -48 43 0 6 -3 8 -6 4 -3 -3 -48 23 -100
59 -52 35 -96 64 -99 64 -2 0 -30 16 -60 36 -75 47 -382 201 -420 209 -6 2
-31 12 -55 23 -49 22 -153 61 -185 69 -11 3 -27 7 -35 11 -18 6 -10 4 -85 27
-33 10 -66 18 -72 18 -7 0 -13 5 -13 10 0 5 -7 7 -15 4 -8 -4 -16 -3 -19 1 -2
4 -19 9 -37 10 -18 1 -37 6 -43 10 -6 5 -18 8 -26 7 -8 -1 -22 2 -31 7 -9 4
-34 10 -55 13 -22 2 -50 7 -64 10 -53 12 -67 15 -111 19 -24 3 -44 5 -44 6 0
3 -63 11 -110 14 -27 2 -50 5 -50 6 0 6 -100 11 -322 14 -139 2 -251 1 -249
-3z"/>
<path d="M3992 5090 c-5 -14 -26 -59 -45 -100 -19 -41 -58 -127 -87 -190 -29
-63 -66 -142 -82 -175 -16 -33 -29 -60 -27 -60 1 0 -9 -22 -22 -50 -12 -27
-24 -52 -24 -55 -1 -3 -18 -41 -39 -85 -44 -92 -69 -148 -71 -155 -1 -3 -13
-29 -28 -59 -15 -30 -27 -61 -27 -68 0 -7 -4 -13 -10 -13 -5 0 -10 -5 -10 -11
0 -11 -9 -32 -131 -296 -17 -38 -51 -113 -76 -168 -25 -55 -60 -132 -78 -170
-18 -39 -56 -122 -85 -185 -29 -63 -68 -149 -87 -190 -19 -41 -55 -120 -80
-175 -25 -55 -59 -129 -76 -165 -17 -36 -31 -67 -32 -70 -3 -10 -35 -79 -80
-175 -25 -53 -45 -98 -45 -100 0 -1 -22 -49 -49 -106 -27 -57 -69 -149 -94
-204 -25 -55 -64 -140 -87 -190 -24 -49 -43 -96 -43 -102 0 -7 -4 -13 -9 -13
-4 0 -8 -5 -8 -11 0 -5 -13 -37 -30 -70 -16 -33 -29 -60 -28 -62 0 -1 -18 -42
-42 -92 -23 -49 -48 -103 -55 -120 -8 -16 -32 -69 -54 -118 -22 -48 -41 -91
-42 -95 -2 -4 -26 -58 -56 -120 -29 -63 -53 -117 -53 -122 0 -5 23 -22 51 -39
73 -45 283 -156 291 -154 3 1 12 -4 18 -12 7 -8 18 -15 24 -15 7 0 37 -12 67
-27 30 -15 56 -28 59 -28 3 -1 14 -5 25 -10 115 -44 304 -111 339 -120 6 -1
26 -6 44 -10 18 -4 35 -12 38 -16 3 -5 9 -7 13 -4 5 2 23 0 42 -6 19 -6 45
-12 59 -15 14 -3 33 -7 42 -10 17 -5 38 -9 93 -20 103 -19 144 -26 175 -30 19
-2 49 -6 65 -8 113 -16 214 -21 465 -21 252 0 329 4 458 21 105 14 176 25 182
29 3 2 24 6 46 9 22 4 51 9 64 12 14 3 43 10 65 14 83 19 102 24 125 33 8 3
35 11 60 17 67 17 284 92 294 101 6 5 15 9 22 9 6 0 36 11 65 24 30 13 57 24
61 25 4 1 62 29 128 61 66 33 123 59 126 59 4 0 10 4 13 9 3 5 24 19 46 31
108 57 140 80 138 99 -1 10 -27 71 -58 135 -30 64 -55 118 -55 121 0 3 -17 40
-38 83 -21 43 -39 81 -40 85 -1 5 -16 38 -33 75 -17 38 -55 120 -84 183 -71
156 -103 226 -131 285 -27 58 -46 108 -44 114 1 2 -3 7 -8 10 -5 3 -25 42 -45
86 -19 44 -50 112 -68 150 -18 39 -34 72 -34 75 -1 3 -12 28 -24 55 -46 97
-84 180 -86 185 -2 6 -31 70 -78 170 -67 144 -130 282 -132 290 -1 3 -13 30
-27 60 -14 30 -40 87 -57 125 -18 39 -41 88 -51 110 -49 104 -110 238 -110
240 0 2 -27 60 -60 130 -33 70 -60 128 -60 130 0 3 -23 54 -105 230 -85 184
-137 300 -134 300 2 0 -4 14 -14 30 -14 26 -70 145 -124 265 -9 19 -33 71 -53
115 -20 44 -50 109 -66 145 -16 35 -41 89 -55 120 -26 53 -27 54 -37 30z m482
-1904 c198 -13 311 -32 296 -51 -15 -18 -67 -25 -285 -41 -213 -16 -947 -9
-1095 10 -143 18 -172 28 -127 45 15 6 48 13 74 16 27 3 57 8 68 10 11 2 85 7
165 11 80 3 146 7 147 8 5 5 670 -3 757 -8z m-159 -331 c110 -3 216 -8 235
-10 19 -2 55 -6 80 -9 102 -11 153 -23 145 -36 -4 -7 -19 -11 -102 -26 -85
-16 -361 -27 -673 -27 -263 0 -344 3 -550 17 -87 6 -161 17 -189 28 -23 8 -24
10 -8 19 22 13 38 16 124 24 37 4 84 9 103 11 19 2 141 7 270 10 129 3 236 7
237 8 2 2 99 -1 328 -9z m145 -329 c109 -8 223 -18 235 -21 6 -1 27 -5 47 -9
45 -10 41 -22 -10 -35 -98 -26 -295 -35 -722 -35 -457 0 -671 12 -750 42 -24
9 -24 9 -4 20 11 6 49 14 84 17 36 4 76 9 90 11 14 2 88 7 165 10 77 4 141 7
142 8 6 5 655 -3 723 -8z"/>
</g>
</svg>
